<svg width="102" height="94" viewBox="0 0 102 94" fill="none" xmlns="http://www.w3.org/2000/svg">
<path d="M15.9483 93.2797V51.6271H33.9273C37.0187 51.6271 39.7237 52.2372 42.0422 53.4575C44.3608 54.6778 46.1641 56.393 47.4522 58.6031C48.7403 60.8132 49.3843 63.3961 49.3843 66.3519C49.3843 69.3349 48.7199 71.9178 47.3912 74.1008C46.076 76.2837 44.2252 77.965 41.8388 79.1446C39.4661 80.3243 36.6933 80.9141 33.5205 80.9141H22.782V72.128H31.2426C32.5714 72.128 33.7036 71.8975 34.6391 71.4365C35.5882 70.9619 36.3136 70.2907 36.8153 69.423C37.3305 68.5552 37.5882 67.5315 37.5882 66.3519C37.5882 65.1587 37.3305 64.1418 36.8153 63.3012C36.3136 62.447 35.5882 61.7962 34.6391 61.3487C33.7036 60.8877 32.5714 60.6572 31.2426 60.6572H27.2564V93.2797H15.9483Z" fill="#00BAC6"/>
<path d="M53.5333 93.2797V51.6271H71.5123C74.6037 51.6271 77.3086 52.2372 79.6272 53.4575C81.9457 54.6778 83.7491 56.393 85.0371 58.6031C86.3252 60.8132 86.9693 63.3961 86.9693 66.3519C86.9693 69.3349 86.3049 71.9178 84.9761 74.1008C83.6609 76.2837 81.8102 77.965 79.4238 79.1446C77.051 80.3243 74.2782 80.9141 71.1055 80.9141H60.3669V72.128H68.8276C70.1564 72.128 71.2885 71.8975 72.2241 71.4365C73.1732 70.9619 73.8986 70.2907 74.4003 69.423C74.9155 68.5552 75.1731 67.5315 75.1731 66.3519C75.1731 65.1587 74.9155 64.1418 74.4003 63.3012C73.8986 62.447 73.1732 61.7962 72.2241 61.3487C71.2885 60.8877 70.1564 60.6572 68.8276 60.6572H64.8413V93.2797H53.5333Z" fill="#00BAC6"/>
<ellipse cx="55.8448" cy="20.8973" rx="33.6323" ry="20.1062" fill="#204466"/>
<ellipse cx="43.4154" cy="23.8218" rx="33.6323" ry="20.1062" fill="#204466"/>
<ellipse cx="55.6323" cy="28.1062" rx="33.6323" ry="20.1062" fill="#204466"/>
<ellipse cx="20.3846" cy="40.6379" rx="13.526" ry="19.3751" fill="#204466"/>
<ellipse cx="83.2623" cy="42.1002" rx="13.526" ry="19.3751" fill="#204466"/>
<path d="M17.313 65.8621C12.4459 65.8621 8.42873 64.3541 5.26131 61.3382C2.09389 58.3222 0.43292 54.7922 0.278412 50.7481C0.278412 50.1998 0.317039 49.5829 0.394294 48.8974C0.471548 48.212 0.587429 47.5951 0.741937 47.0467L10.476 12.5006C11.5575 8.86772 13.7794 5.88605 17.1415 3.55556C20.5005 1.22506 24.2658 0.0598145 28.4376 0.0598145H73.6313C77.803 0.0598145 81.5684 1.22506 84.9274 3.55556C88.2895 5.88605 90.5113 8.86772 91.5929 12.5006L101.327 47.0467C101.481 47.6636 101.617 48.297 101.735 48.9468C101.849 49.5993 101.906 50.234 101.906 50.8509C101.906 54.9636 100.265 58.4936 96.9837 61.441C93.6988 64.3884 89.6229 65.8621 84.7559 65.8621C81.5112 65.8621 78.4983 65.1081 75.7172 63.6001C72.936 62.0921 70.8501 60.0358 69.4596 57.4312L66.2149 51.4678C65.8286 50.7138 65.2693 50.1833 64.5369 49.8762C63.8015 49.5664 62.9702 49.4115 62.0432 49.4115H40.0257C39.0987 49.4115 38.2689 49.5664 37.5366 49.8762C36.8011 50.1833 36.2402 50.7138 35.854 51.4678L32.6093 57.4312C31.2187 60.0358 29.1329 62.0921 26.3517 63.6001C23.5706 65.1081 20.5576 65.8621 17.313 65.8621ZM17.6606 57.6368C18.9739 57.6368 20.2301 57.3283 21.4291 56.7114C22.625 56.0945 23.6092 55.1349 24.3817 53.8326L27.6264 47.9721C28.7852 45.8472 29.1344 44.2351 31.3346 43.0369C33.5379 41.836 37.3218 41.1862 40.0257 41.1862H62.0432C64.6698 41.1862 67.1033 41.8031 69.3437 43.0369C71.584 44.2707 73.3223 45.9158 74.5583 47.9721L77.803 53.8326C78.5756 55.1349 79.5613 56.0945 80.7603 56.7114C81.9562 57.3283 83.2108 57.6368 84.5241 57.6368C86.5327 57.6368 88.3482 57.0199 89.9705 55.7861C91.5929 54.5523 92.4427 52.9415 92.5199 50.9537V49.9749C92.5199 49.6678 92.4427 49.343 92.2882 49.0002L82.5541 14.5569C82.0134 12.7062 80.9318 11.1982 79.3095 10.033C77.6871 8.86772 75.7944 8.2851 73.6313 8.2851H28.4376C26.2745 8.2851 24.3632 8.86772 22.7038 10.033C21.0413 11.1982 19.9782 12.7062 19.5147 14.5569L9.78068 49.0002C9.62617 49.4115 9.54892 50.0284 9.54892 50.8509C9.54892 52.8387 10.3987 54.4673 12.0983 55.7367C13.7979 57.0034 15.652 57.6368 17.6606 57.6368ZM57.9873 28.8483C56.674 28.8483 55.5739 28.4535 54.687 27.6639C53.797 26.877 53.3521 25.9009 53.3521 24.7357C53.3521 23.5704 53.797 22.593 54.687 21.8033C55.5739 21.0165 56.674 20.623 57.9873 20.623C59.3006 20.623 60.4023 21.0165 61.2922 21.8033C62.1791 22.593 62.6226 23.5704 62.6226 24.7357C62.6226 25.9009 62.1791 26.877 61.2922 27.6639C60.4023 28.4535 59.3006 28.8483 57.9873 28.8483ZM67.2578 20.623C65.9445 20.623 64.8444 20.2282 63.9575 19.4386C63.0675 18.6517 62.6226 17.6756 62.6226 16.5104C62.6226 15.3451 63.0675 14.3677 63.9575 13.5781C64.8444 12.7912 65.9445 12.3977 67.2578 12.3977C68.5711 12.3977 69.6712 12.7912 70.5581 13.5781C71.4481 14.3677 71.8931 15.3451 71.8931 16.5104C71.8931 17.6756 71.4481 18.6517 70.5581 19.4386C69.6712 20.2282 68.5711 20.623 67.2578 20.623ZM67.2578 37.0736C65.9445 37.0736 64.8444 36.6788 63.9575 35.8891C63.0675 35.1023 62.6226 34.1262 62.6226 32.9609C62.6226 31.7957 63.0675 30.8183 63.9575 30.0286C64.8444 29.2417 65.9445 28.8483 67.2578 28.8483C68.5711 28.8483 69.6712 29.2417 70.5581 30.0286C71.4481 30.8183 71.8931 31.7957 71.8931 32.9609C71.8931 34.1262 71.4481 35.1023 70.5581 35.8891C69.6712 36.6788 68.5711 37.0736 67.2578 37.0736ZM76.5283 28.8483C75.215 28.8483 74.1149 28.4535 73.228 27.6639C72.338 26.877 71.8931 25.9009 71.8931 24.7357C71.8931 23.5704 72.338 22.593 73.228 21.8033C74.1149 21.0165 75.215 20.623 76.5283 20.623C77.8416 20.623 78.9417 21.0165 79.8286 21.8033C80.7186 22.593 81.1636 23.5704 81.1636 24.7357C81.1636 25.9009 80.7186 26.877 79.8286 27.6639C78.9417 28.4535 77.8416 28.8483 76.5283 28.8483ZM34.811 35.0173C33.884 35.0173 33.0728 34.7088 32.3775 34.0919C31.6822 33.475 31.3346 32.7553 31.3346 31.9328V27.8201H26.6994C25.7723 27.8201 24.9611 27.5117 24.2658 26.8948C23.5706 26.2779 23.2229 25.5582 23.2229 24.7357C23.2229 23.9131 23.5706 23.1934 24.2658 22.5765C24.9611 21.9596 25.7723 21.6512 26.6994 21.6512H31.3346V17.5385C31.3346 16.716 31.6822 15.9963 32.3775 15.3794C33.0728 14.7625 33.884 14.4541 34.811 14.4541C35.7381 14.4541 36.5493 14.7625 37.2446 15.3794C37.9398 15.9963 38.2875 16.716 38.2875 17.5385V21.6512H42.9227C43.8498 21.6512 44.661 21.9596 45.3562 22.5765C46.0515 23.1934 46.3992 23.9131 46.3992 24.7357C46.3992 25.5582 46.0515 26.2779 45.3562 26.8948C44.661 27.5117 43.8498 27.8201 42.9227 27.8201H38.2875V31.9328C38.2875 32.7553 37.9398 33.475 37.2446 34.0919C36.5493 34.7088 35.7381 35.0173 34.811 35.0173Z" fill="#00F0FF"/>
</svg>
