<svg width="62" height="62" viewBox="0 0 62 62" fill="none" xmlns="http://www.w3.org/2000/svg">
<path d="M33.6712 15.5581H27.5948V27.7109H15.442V33.7873H27.5948V45.9401H33.6712V33.7873H45.824V27.7109H33.6712V15.5581ZM30.633 0.367065C13.8621 0.367065 0.250977 13.9782 0.250977 30.7491C0.250977 47.52 13.8621 61.1311 30.633 61.1311C47.4039 61.1311 61.015 47.52 61.015 30.7491C61.015 13.9782 47.4039 0.367065 30.633 0.367065ZM30.633 55.0547C17.2345 55.0547 6.32738 44.1476 6.32738 30.7491C6.32738 17.3506 17.2345 6.44347 30.633 6.44347C44.0315 6.44347 54.9386 17.3506 54.9386 30.7491C54.9386 44.1476 44.0315 55.0547 30.633 55.0547Z" fill="#00F0FF"/>
</svg>
